<?xml version="1.0" encoding="UTF-8"?>
<svg xmlns="http://www.w3.org/2000/svg" viewBox="0 0 1024 1024">
  <path d="M 675.03 231.77 L 675.91 230.88 L 677.67 230.88 L 679.44 230.88 L 681.20 230.88 L 682.96 230.88 L 684.72 230.88 L 686.49 230.88 L 688.25 230.88 L 690.01 230.88 L 691.77 230.88 L 693.54 230.88 L 695.30 230.88 L 697.06 230.88 L 698.82 230.88 L 700.59 230.88 L 702.35 230.88 L 704.11 230.88 L 705.87 230.88 L 707.64 230.88 L 709.40 230.88 L 711.16 230.88 L 712.92 230.88 L 714.69 230.88 L 716.45 230.88 L 718.21 230.88 L 719.97 230.88 L 721.73 230.88 L 723.50 230.88 L 725.26 230.88 L 726.14 231.77 L 727.02 232.65 L 728.78 232.65 L 730.55 232.65 L 732.31 232.65 L 734.07 232.65 L 735.83 232.65 L 737.60 232.65 L 738.48 233.53 L 739.36 234.41 L 741.12 234.41 L 742.88 234.41 L 744.65 234.41 L 746.41 234.41 L 748.17 234.41 L 749.05 235.29 L 749.93 236.17 L 751.70 236.17 L 753.46 236.17 L 755.22 236.17 L 756.10 237.05 L 756.98 237.93 L 758.75 237.93 L 760.51 237.93 L 762.27 237.93 L 763.15 238.82 L 764.03 239.70 L 765.80 239.70 L 767.56 239.70 L 769.32 239.70 L 770.20 240.58 L 771.08 241.46 L 772.85 241.46 L 774.61 241.46 L 775.49 242.34 L 776.37 243.22 L 778.13 243.22 L 779.90 243.22 L 780.78 244.10 L 781.66 244.98 L 783.42 244.98 L 784.30 245.87 L 785.18 246.75 L 786.95 246.75 L 788.71 246.75 L 789.59 247.63 L 790.47 248.51 L 792.23 248.51 L 793.12 249.39 L 794.00 250.27 L 795.76 250.27 L 796.64 251.15 L 797.52 252.03 L 799.28 252.03 L 800.17 252.92 L 801.05 253.80 L 802.81 253.80 L 803.69 254.68 L 804.57 255.56 L 806.33 255.56 L 808.10 255.56 L 808.98 256.44 L 809.86 257.32 L 810.74 258.20 L 811.62 259.08 L 813.38 259.08 L 814.27 259.97 L 815.15 260.85 L 816.91 260.85 L 817.79 261.73 L 818.67 262.61 L 819.55 263.49 L 820.43 264.37 L 822.20 264.37 L 823.08 265.25 L 823.96 266.13 L 825.72 266.13 L 826.60 267.02 L 827.48 267.90 L 828.36 268.78 L 829.25 269.66 L 831.01 269.66 L 831.89 270.54 L 832.77 271.42 L 834.53 271.42 L 835.41 272.30 L 836.30 273.18 L 837.18 274.07 L 838.06 274.95 L 838.94 275.83 L 839.82 276.71 L 841.58 276.71 L 842.46 277.59 L 843.35 278.47 L 844.23 279.35 L 845.11 280.23 L 845.99 281.12 L 846.87 282.00 L 848.63 282.00 L 849.51 282.88 L 850.40 283.76 L 851.28 284.64 L 852.16 285.52 L 853.04 286.40 L 853.92 287.28 L 854.80 288.17 L 855.68 289.05 L 856.56 289.93 L 857.45 290.81 L 858.33 291.69 L 859.21 292.57 L 860.09 293.45 L 860.97 294.33 L 862.73 294.33 L 863.61 295.22 L 864.50 296.10 L 865.38 296.98 L 865.38 298.74 L 866.26 299.62 L 868.02 299.62 L 868.90 300.50 L 869.78 301.38 L 870.66 302.27 L 870.66 304.03 L 871.55 304.91 L 872.43 305.79 L 873.31 306.67 L 874.19 307.55 L 875.07 308.43 L 875.95 309.31 L 876.83 310.20 L 877.71 311.08 L 878.60 311.96 L 880.36 311.96 L 881.24 312.84 L 881.24 314.60 L 880.36 315.48 L 878.60 315.48 L 877.71 316.36 L 876.83 317.25 L 875.07 317.25 L 874.19 318.13 L 873.31 319.01 L 871.55 319.01 L 870.66 319.89 L 869.78 320.77 L 868.90 321.65 L 868.02 322.53 L 866.26 322.53 L 865.38 323.41 L 864.50 324.30 L 863.61 325.18 L 862.73 326.06 L 860.97 326.06 L 860.09 326.94 L 859.21 327.82 L 858.33 328.70 L 857.45 329.58 L 856.56 330.46 L 855.68 331.35 L 853.92 331.35 L 853.04 332.23 L 852.16 333.11 L 851.28 333.99 L 850.40 334.87 L 849.51 335.75 L 848.63 336.63 L 847.75 337.51 L 846.87 338.40 L 845.99 339.28 L 845.11 340.16 L 844.23 341.04 L 843.35 341.92 L 841.58 341.92 L 840.70 342.80 L 839.82 343.68 L 838.94 344.56 L 838.06 345.45 L 837.18 346.33 L 836.30 347.21 L 835.41 348.09 L 834.53 348.97 L 833.65 349.85 L 833.65 351.61 L 832.77 352.50 L 831.89 353.38 L 831.01 354.26 L 830.13 355.14 L 829.25 356.02 L 828.36 356.90 L 827.48 357.78 L 826.60 358.66 L 825.72 359.55 L 824.84 360.43 L 823.96 361.31 L 823.08 362.19 L 823.08 363.95 L 822.20 364.83 L 821.31 365.71 L 820.43 366.60 L 819.55 367.48 L 818.67 368.36 L 817.79 369.24 L 817.79 371.00 L 816.91 371.88 L 816.03 372.76 L 815.15 373.65 L 814.27 374.53 L 813.38 375.41 L 812.50 376.29 L 812.50 378.05 L 811.62 378.93 L 810.74 379.81 L 810.74 381.58 L 809.86 382.46 L 808.98 383.34 L 808.10 384.22 L 807.22 385.10 L 807.22 386.86 L 806.33 387.75 L 805.45 388.63 L 805.45 390.39 L 804.57 391.27 L 803.69 392.15 L 803.69 393.91 L 802.81 394.80 L 801.93 395.68 L 801.93 397.44 L 801.05 398.32 L 800.17 399.20 L 800.17 400.96 L 799.28 401.85 L 798.40 402.73 L 797.52 403.61 L 796.64 404.49 L 796.64 406.25 L 796.64 408.01 L 795.76 408.90 L 794.88 409.78 L 794.88 411.54 L 794.00 412.42 L 793.12 413.30 L 793.12 415.06 L 792.23 415.94 L 791.35 416.83 L 791.35 418.59 L 790.47 419.47 L 789.59 420.35 L 789.59 422.11 L 789.59 423.88 L 788.71 424.76 L 787.83 425.64 L 787.83 427.40 L 786.95 428.28 L 786.07 429.16 L 786.07 430.93 L 786.07 432.69 L 785.18 433.57 L 784.30 434.45 L 784.30 436.21 L 783.42 437.09 L 782.54 437.98 L 782.54 439.74 L 782.54 441.50 L 781.66 442.38 L 780.78 443.26 L 780.78 445.03 L 780.78 446.79 L 780.78 448.55 L 779.90 449.43 L 779.02 450.31 L 779.02 452.08 L 779.02 453.84 L 778.13 454.72 L 777.25 455.60 L 777.25 457.36 L 777.25 459.13 L 777.25 460.89 L 777.25 462.65 L 776.37 463.53 L 775.49 464.41 L 775.49 466.18 L 775.49 467.94 L 775.49 469.70 L 775.49 471.46 L 774.61 472.34 L 773.73 473.23 L 773.73 474.99 L 773.73 476.75 L 773.73 478.51 L 773.73 480.28 L 773.73 482.04 L 773.73 483.80 L 772.85 484.68 L 771.97 485.56 L 771.97 487.33 L 771.97 489.09 L 771.97 490.85 L 771.97 492.61 L 771.97 494.38 L 771.97 496.14 L 771.97 497.90 L 771.97 499.66 L 771.97 501.43 L 771.97 503.19 L 771.97 504.95 L 771.97 506.71 L 771.97 508.48 L 771.97 510.24 L 771.97 512.00 L 771.97 513.76 L 771.97 515.52 L 771.97 517.29 L 771.97 519.05 L 771.97 520.81 L 771.97 522.57 L 771.97 524.34 L 771.97 526.10 L 771.97 527.86 L 771.97 529.62 L 771.97 531.39 L 771.97 533.15 L 771.97 534.91 L 772.85 535.79 L 773.73 536.67 L 773.73 538.44 L 773.73 540.20 L 773.73 541.96 L 773.73 543.72 L 773.73 545.49 L 773.73 547.25 L 773.73 549.01 L 773.73 550.77 L 774.61 551.66 L 775.49 552.54 L 775.49 554.30 L 775.49 556.06 L 775.49 557.82 L 775.49 559.59 L 775.49 561.35 L 775.49 563.11 L 776.37 563.99 L 777.25 564.87 L 777.25 566.64 L 777.25 568.40 L 777.25 570.16 L 778.13 571.04 L 779.02 571.92 L 779.02 573.69 L 779.02 575.45 L 779.02 577.21 L 779.90 578.09 L 780.78 578.97 L 780.78 580.74 L 780.78 582.50 L 780.78 584.26 L 781.66 585.14 L 782.54 586.02 L 782.54 587.79 L 782.54 589.55 L 783.42 590.43 L 784.30 591.31 L 784.30 593.07 L 784.30 594.84 L 785.18 595.72 L 786.07 596.60 L 786.07 598.36 L 786.95 599.24 L 787.83 600.12 L 787.83 601.89 L 787.83 603.65 L 788.71 604.53 L 789.59 605.41 L 789.59 607.17 L 790.47 608.06 L 791.35 608.94 L 791.35 610.70 L 792.23 611.58 L 793.12 612.46 L 793.12 614.22 L 794.00 615.10 L 794.88 615.99 L 794.88 617.75 L 795.76 618.63 L 796.64 619.51 L 796.64 621.27 L 797.52 622.15 L 798.40 623.04 L 798.40 624.80 L 799.28 625.68 L 800.17 626.56 L 800.17 628.32 L 801.05 629.20 L 801.93 630.09 L 801.93 631.85 L 802.81 632.73 L 803.69 633.61 L 803.69 635.37 L 804.57 636.25 L 805.45 637.14 L 806.33 638.02 L 807.22 638.90 L 807.22 640.66 L 808.10 641.54 L 808.98 642.42 L 809.86 643.30 L 810.74 644.19 L 810.74 645.95 L 811.62 646.83 L 812.50 647.71 L 813.38 648.59 L 814.27 649.47 L 815.15 650.35 L 816.03 651.24 L 816.03 653.00 L 816.91 653.88 L 817.79 654.76 L 818.67 655.64 L 819.55 656.52 L 820.43 657.40 L 821.31 658.29 L 821.31 660.05 L 822.20 660.93 L 823.08 661.81 L 823.96 662.69 L 824.84 663.57 L 825.72 664.45 L 826.60 665.34 L 827.48 666.22 L 828.36 667.10 L 829.25 667.98 L 830.13 668.86 L 831.01 669.74 L 831.89 670.62 L 832.77 671.50 L 833.65 672.39 L 834.53 673.27 L 835.41 674.15 L 836.30 675.03 L 837.18 675.91 L 838.06 676.79 L 838.94 677.67 L 839.82 678.55 L 840.70 679.44 L 841.58 680.32 L 842.46 681.20 L 843.35 682.08 L 844.23 682.96 L 845.11 683.84 L 845.99 684.72 L 846.87 685.60 L 847.75 686.49 L 848.63 687.37 L 849.51 688.25 L 850.40 689.13 L 852.16 689.13 L 853.04 690.01 L 853.92 690.89 L 854.80 691.77 L 855.68 692.65 L 856.56 693.54 L 857.45 694.42 L 858.33 695.30 L 859.21 696.18 L 860.97 696.18 L 861.85 697.06 L 862.73 697.94 L 863.61 698.82 L 864.50 699.70 L 865.38 700.59 L 866.26 701.47 L 867.14 702.35 L 868.02 703.23 L 869.78 703.23 L 870.66 704.11 L 871.55 704.99 L 872.43 705.87 L 873.31 706.75 L 875.07 706.75 L 875.95 707.64 L 876.83 708.52 L 877.71 709.40 L 878.60 710.28 L 880.36 710.28 L 881.24 711.16 L 882.12 712.04 L 883.00 712.92 L 883.88 713.80 L 885.65 713.80 L 886.53 714.69 L 887.41 715.57 L 889.17 715.57 L 890.05 716.45 L 890.93 717.33 L 891.81 718.21 L 892.70 719.09 L 894.46 719.09 L 895.34 719.97 L 896.22 720.85 L 897.98 720.85 L 898.86 721.73 L 899.75 722.62 L 900.63 723.50 L 901.51 724.38 L 903.27 724.38 L 904.15 725.26 L 905.03 726.14 L 906.80 726.14 L 907.68 727.02 L 908.56 727.90 L 910.32 727.90 L 911.20 728.78 L 912.08 729.67 L 913.85 729.67 L 915.61 729.67 L 916.49 730.55 L 917.37 731.43 L 918.25 732.31 L 919.13 733.19 L 920.01 734.07 L 920.01 735.83 L 919.13 736.72 L 918.25 737.60 L 918.25 739.36 L 918.25 741.12 L 917.37 742.00 L 916.49 742.88 L 916.49 744.65 L 916.49 746.41 L 915.61 747.29 L 914.73 748.17 L 914.73 749.93 L 914.73 751.70 L 914.73 753.46 L 913.85 754.34 L 912.96 755.22 L 912.96 756.98 L 912.96 758.75 L 912.08 759.63 L 911.20 760.51 L 911.20 762.27 L 911.20 764.03 L 910.32 764.92 L 909.44 765.80 L 909.44 767.56 L 909.44 769.32 L 908.56 770.20 L 907.68 771.08 L 907.68 772.85 L 907.68 774.61 L 906.80 775.49 L 905.91 776.37 L 905.91 778.13 L 905.03 779.02 L 904.15 779.90 L 904.15 781.66 L 904.15 783.42 L 903.27 784.30 L 902.39 785.18 L 902.39 786.95 L 901.51 787.83 L 900.63 788.71 L 900.63 790.47 L 900.63 792.23 L 899.75 793.12 L 898.86 794.00 L 898.86 795.76 L 897.98 796.64 L 897.10 797.52 L 897.10 799.28 L 896.22 800.17 L 895.34 801.05 L 895.34 802.81 L 895.34 804.57 L 894.46 805.45 L 893.58 806.33 L 893.58 808.10 L 892.70 808.98 L 891.81 809.86 L 891.81 811.62 L 890.93 812.50 L 890.05 813.38 L 890.05 815.15 L 889.17 816.03 L 888.29 816.91 L 888.29 818.67 L 887.41 819.55 L 886.53 820.43 L 886.53 822.20 L 885.65 823.08 L 884.76 823.96 L 884.76 825.72 L 883.88 826.60 L 883.00 827.48 L 883.00 829.25 L 882.12 830.13 L 881.24 831.01 L 881.24 832.77 L 880.36 833.65 L 879.48 834.53 L 879.48 836.30 L 878.60 837.18 L 877.71 838.06 L 877.71 839.82 L 876.83 840.70 L 875.95 841.58 L 875.07 842.46 L 874.19 843.35 L 874.19 845.11 L 873.31 845.99 L 872.43 846.87 L 872.43 848.63 L 871.55 849.51 L 870.66 850.40 L 870.66 852.16 L 869.78 853.04 L 868.90 853.92 L 868.90 855.68 L 868.02 856.56 L 867.14 857.45 L 866.26 858.33 L 865.38 859.21 L 865.38 860.97 L 864.50 861.85 L 863.61 862.73 L 863.61 864.50 L 862.73 865.38 L 861.85 866.26 L 860.97 867.14 L 860.09 868.02 L 860.09 869.78 L 859.21 870.66 L 858.33 871.55 L 858.33 873.31 L 857.45 874.19 L 856.56 875.07 L 855.68 875.95 L 854.80 876.83 L 854.80 878.60 L 853.92 879.48 L 853.04 880.36 L 852.16 881.24 L 851.28 882.12 L 851.28 883.88 L 850.40 884.76 L 849.51 885.65 L 848.63 886.53 L 847.75 887.41 L 847.75 889.17 L 846.87 890.05 L 845.99 890.93 L 845.11 891.81 L 844.23 892.70 L 844.23 894.46 L 843.35 895.34 L 842.46 896.22 L 841.58 897.10 L 840.70 897.98 L 840.70 899.75 L 839.82 900.63 L 838.94 901.51 L 838.06 902.39 L 837.18 903.27 L 837.18 905.03 L 836.30 905.91 L 835.41 906.80 L 834.53 907.68 L 833.65 908.56 L 833.65 910.32 L 832.77 911.20 L 831.89 912.08 L 831.01 912.96 L 830.13 913.85 L 829.25 914.73 L 828.36 915.61 L 828.36 917.37 L 827.48 918.25 L 826.60 919.13 L 825.72 920.01 L 824.84 920.90 L 824.84 922.66 L 823.96 923.54 L 823.08 924.42 L 822.20 925.30 L 821.31 926.18 L 820.43 927.06 L 819.55 927.94 L 818.67 928.83 L 817.79 929.71 L 817.79 931.47 L 816.91 932.35 L 816.03 933.23 L 815.15 934.11 L 814.27 934.99 L 813.38 935.88 L 812.50 936.76 L 811.62 937.64 L 810.74 938.52 L 809.86 939.40 L 808.98 940.28 L 808.98 942.04 L 808.10 942.93 L 807.22 943.81 L 806.33 944.69 L 805.45 945.57 L 804.57 946.45 L 803.69 947.33 L 802.81 948.21 L 801.93 949.09 L 801.05 949.98 L 800.17 950.86 L 799.28 951.74 L 798.40 952.62 L 797.52 953.50 L 796.64 954.38 L 796.64 956.14 L 795.76 957.03 L 794.88 957.91 L 794.00 958.79 L 793.12 959.67 L 792.23 960.55 L 791.35 961.43 L 790.47 962.31 L 789.59 963.19 L 788.71 964.08 L 787.83 964.96 L 786.95 965.84 L 786.07 966.72 L 785.18 967.60 L 784.30 968.48 L 783.42 969.36 L 782.54 970.24 L 781.66 971.13 L 780.78 972.01 L 779.90 972.89 L 779.02 973.77 L 778.13 974.65 L 776.37 974.65 L 775.49 975.53 L 775.49 977.29 L 774.61 978.18 L 772.85 978.18 L 771.97 979.06 L 771.08 979.94 L 770.20 980.82 L 769.32 981.70 L 768.44 982.58 L 767.56 983.46 L 766.68 984.34 L 765.80 985.23 L 764.92 986.11 L 764.03 986.99 L 762.27 986.99 L 761.39 987.87 L 760.51 988.75 L 758.75 988.75 L 757.87 989.63 L 756.98 990.51 L 756.10 991.39 L 755.22 992.28 L 754.34 993.16 L 753.46 994.04 L 751.70 994.04 L 750.82 994.92 L 749.93 995.80 L 748.17 995.80 L 747.29 996.68 L 746.41 997.56 L 745.53 998.44 L 744.65 999.33 L 742.88 999.33 L 742.00 1000.21 L 741.12 1001.09 L 739.36 1001.09 L 738.48 1001.97 L 737.60 1002.85 L 735.83 1002.85 L 734.95 1003.73 L 734.07 1004.61 L 732.31 1004.61 L 731.43 1005.49 L 730.55 1006.38 L 728.78 1006.38 L 727.02 1006.38 L 726.14 1007.26 L 725.26 1008.14 L 723.50 1008.14 L 721.73 1008.14 L 720.85 1009.02 L 719.97 1009.90 L 718.21 1009.90 L 716.45 1009.90 L 714.69 1009.90 L 713.80 1010.78 L 712.92 1011.66 L 711.16 1011.66 L 709.40 1011.66 L 707.64 1011.66 L 705.87 1011.66 L 704.11 1011.66 L 703.23 1012.54 L 702.35 1013.43 L 700.59 1013.43 L 698.82 1013.43 L 697.06 1013.43 L 695.30 1013.43 L 693.54 1013.43 L 691.77 1013.43 L 690.01 1013.43 L 688.25 1013.43 L 686.49 1013.43 L 684.72 1013.43 L 682.96 1013.43 L 681.20 1013.43 L 680.32 1012.54 L 679.44 1011.66 L 677.67 1011.66 L 675.91 1011.66 L 674.15 1011.66 L 672.39 1011.66 L 671.50 1010.78 L 670.62 1009.90 L 668.86 1009.90 L 667.10 1009.90 L 665.34 1009.90 L 663.57 1009.90 L 662.69 1009.02 L 661.81 1008.14 L 660.05 1008.14 L 658.29 1008.14 L 657.40 1007.26 L 656.52 1006.38 L 654.76 1006.38 L 653.00 1006.38 L 652.12 1005.49 L 651.24 1004.61 L 649.47 1004.61 L 647.71 1004.61 L 646.83 1003.73 L 645.95 1002.85 L 644.19 1002.85 L 643.30 1001.97 L 642.42 1001.09 L 640.66 1001.09 L 638.90 1001.09 L 638.02 1000.21 L 637.14 999.33 L 635.37 999.33 L 634.49 998.44 L 633.61 997.56 L 631.85 997.56 L 630.09 997.56 L 629.20 996.68 L 628.32 995.80 L 626.56 995.80 L 625.68 994.92 L 624.80 994.04 L 623.04 994.04 L 621.27 994.04 L 620.39 993.16 L 619.51 992.28 L 617.75 992.28 L 616.87 991.39 L 615.99 990.51 L 614.22 990.51 L 612.46 990.51 L 610.70 990.51 L 609.82 989.63 L 608.94 988.75 L 607.17 988.75 L 606.29 987.87 L 605.41 986.99 L 603.65 986.99 L 601.89 986.99 L 601.01 986.11 L 600.12 985.23 L 598.36 985.23 L 596.60 985.23 L 594.84 985.23 L 593.96 984.34 L 593.07 983.46 L 591.31 983.46 L 589.55 983.46 L 587.79 983.46 L 586.91 982.58 L 586.02 981.70 L 584.26 981.70 L 582.50 981.70 L 580.74 981.70 L 578.97 981.70 L 577.21 981.70 L 576.33 980.82 L 575.45 979.94 L 573.69 979.94 L 571.92 979.94 L 570.16 979.94 L 568.40 979.94 L 566.64 979.94 L 564.87 979.94 L 563.11 979.94 L 562.23 979.06 L 561.35 978.18 L 559.59 978.18 L 557.82 978.18 L 556.06 978.18 L 554.30 978.18 L 552.54 978.18 L 550.77 978.18 L 549.01 978.18 L 547.25 978.18 L 545.49 978.18 L 543.72 978.18 L 541.96 978.18 L 540.20 978.18 L 538.44 978.18 L 536.67 978.18 L 534.91 978.18 L 533.15 978.18 L 531.39 978.18 L 529.62 978.18 L 527.86 978.18 L 526.10 978.18 L 524.34 978.18 L 522.57 978.18 L 520.81 978.18 L 519.05 978.18 L 517.29 978.18 L 515.52 978.18 L 514.64 979.06 L 513.76 979.94 L 512.00 979.94 L 510.24 979.94 L 508.48 979.94 L 506.71 979.94 L 504.95 979.94 L 504.07 980.82 L 503.19 981.70 L 501.43 981.70 L 499.66 981.70 L 498.78 982.58 L 497.90 983.46 L 496.14 983.46 L 494.38 983.46 L 492.61 983.46 L 490.85 983.46 L 489.97 984.34 L 489.09 985.23 L 487.33 985.23 L 485.56 985.23 L 484.68 986.11 L 483.80 986.99 L 482.04 986.99 L 480.28 986.99 L 479.39 987.87 L 478.51 988.75 L 476.75 988.75 L 474.99 988.75 L 474.11 989.63 L 473.23 990.51 L 471.46 990.51 L 470.58 991.39 L 469.70 992.28 L 467.94 992.28 L 466.18 992.28 L 465.29 993.16 L 464.41 994.04 L 462.65 994.04 L 460.89 994.04 L 460.01 994.92 L 459.13 995.80 L 457.36 995.80 L 456.48 996.68 L 455.60 997.56 L 453.84 997.56 L 452.96 998.44 L 452.08 999.33 L 450.31 999.33 L 449.43 1000.21 L 448.55 1001.09 L 446.79 1001.09 L 445.03 1001.09 L 444.14 1001.97 L 443.26 1002.85 L 441.50 1002.85 L 440.62 1003.73 L 439.74 1004.61 L 437.98 1004.61 L 437.09 1005.49 L 436.21 1006.38 L 434.45 1006.38 L 433.57 1007.26 L 432.69 1008.14 L 430.93 1008.14 L 429.16 1008.14 L 428.28 1009.02 L 427.40 1009.90 L 425.64 1009.90 L 424.76 1010.78 L 423.88 1011.66 L 422.11 1011.66 L 421.23 1012.54 L 420.35 1013.43 L 418.59 1013.43 L 416.83 1013.43 L 415.94 1014.31 L 415.06 1015.19 L 413.30 1015.19 L 411.54 1015.19 L 409.78 1015.19 L 408.90 1016.07 L 408.01 1016.95 L 406.25 1016.95 L 404.49 1016.95 L 403.61 1017.83 L 402.73 1018.71 L 400.96 1018.71 L 399.20 1018.71 L 398.32 1019.59 L 397.44 1020.48 L 395.68 1020.48 L 393.91 1020.48 L 392.15 1020.48 L 390.39 1020.48 L 389.51 1021.36 L 388.63 1022.24 L 386.86 1022.24 L 385.10 1022.24 L 383.34 1022.24 L 381.58 1022.24 L 380.70 1023.12 L 379.81 1024.00 L 378.05 1024.00 L 376.29 1024.00 L 374.53 1024.00 L 372.76 1024.00 L 371.00 1024.00 L 369.24 1024.00 L 367.48 1024.00 L 365.71 1024.00 L 363.95 1024.00 L 362.19 1024.00 L 360.43 1024.00 L 358.66 1024.00 L 356.90 1024.00 L 355.14 1024.00 L 353.38 1024.00 L 351.61 1024.00 L 349.85 1024.00 L 348.97 1023.12 L 348.09 1022.24 L 346.33 1022.24 L 344.56 1022.24 L 342.80 1022.24 L 341.04 1022.24 L 339.28 1022.24 L 338.40 1021.36 L 337.51 1020.48 L 335.75 1020.48 L 333.99 1020.48 L 332.23 1020.48 L 330.46 1020.48 L 329.58 1019.59 L 328.70 1018.71 L 326.94 1018.71 L 325.18 1018.71 L 324.30 1017.83 L 323.41 1016.95 L 321.65 1016.95 L 319.89 1016.95 L 319.01 1016.07 L 318.13 1015.19 L 316.36 1015.19 L 314.60 1015.19 L 313.72 1014.31 L 312.84 1013.43 L 311.08 1013.43 L 310.20 1012.54 L 309.31 1011.66 L 307.55 1011.66 L 306.67 1010.78 L 305.79 1009.90 L 304.91 1009.02 L 304.03 1008.14 L 302.27 1008.14 L 301.38 1007.26 L 300.50 1006.38 L 299.62 1005.49 L 298.74 1004.61 L 296.98 1004.61 L 296.10 1003.73 L 295.22 1002.85 L 293.45 1002.85 L 292.57 1001.97 L 291.69 1001.09 L 290.81 1000.21 L 289.93 999.33 L 289.05 998.44 L 288.17 997.56 L 287.28 996.68 L 286.40 995.80 L 285.52 994.92 L 284.64 994.04 L 282.88 994.04 L 282.00 993.16 L 281.12 992.28 L 280.23 991.39 L 279.35 990.51 L 278.47 989.63 L 277.59 988.75 L 276.71 987.87 L 275.83 986.99 L 274.95 986.11 L 274.07 985.23 L 273.18 984.34 L 272.30 983.46 L 271.42 982.58 L 270.54 981.70 L 269.66 980.82 L 268.78 979.94 L 267.90 979.06 L 267.02 978.18 L 266.13 977.29 L 265.25 976.41 L 264.37 975.53 L 263.49 974.65 L 262.61 973.77 L 261.73 972.89 L 260.85 972.01 L 259.97 971.13 L 259.08 970.24 L 258.20 969.36 L 257.32 968.48 L 256.44 967.60 L 255.56 966.72 L 254.68 965.84 L 253.80 964.96 L 253.80 963.19 L 252.92 962.31 L 252.03 961.43 L 251.15 960.55 L 250.27 959.67 L 249.39 958.79 L 248.51 957.91 L 247.63 957.03 L 246.75 956.14 L 245.87 955.26 L 244.98 954.38 L 244.98 952.62 L 244.10 951.74 L 243.22 950.86 L 242.34 949.98 L 241.46 949.09 L 240.58 948.21 L 239.70 947.33 L 238.82 946.45 L 237.93 945.57 L 237.93 943.81 L 237.05 942.93 L 236.17 942.04 L 235.29 941.16 L 234.41 940.28 L 233.53 939.40 L 232.65 938.52 L 232.65 936.76 L 231.77 935.88 L 230.88 934.99 L 230.00 934.11 L 229.12 933.23 L 228.24 932.35 L 227.36 931.47 L 226.48 930.59 L 225.60 929.71 L 225.60 927.94 L 224.72 927.06 L 223.83 926.18 L 222.95 925.30 L 222.07 924.42 L 222.07 922.66 L 221.19 921.78 L 220.31 920.90 L 219.43 920.01 L 218.55 919.13 L 218.55 917.37 L 217.67 916.49 L 216.78 915.61 L 215.90 914.73 L 215.02 913.85 L 214.14 912.96 L 213.26 912.08 L 213.26 910.32 L 212.38 909.44 L 211.50 908.56 L 210.62 907.68 L 209.73 906.80 L 209.73 905.03 L 208.85 904.15 L 207.97 903.27 L 207.97 901.51 L 207.09 900.63 L 206.21 899.75 L 205.33 898.86 L 204.45 897.98 L 203.57 897.10 L 202.69 896.22 L 202.69 894.46 L 201.80 893.58 L 200.92 892.70 L 200.92 890.93 L 200.04 890.05 L 199.16 889.17 L 198.28 888.29 L 197.40 887.41 L 197.40 885.65 L 196.52 884.76 L 195.64 883.88 L 194.75 883.00 L 193.87 882.12 L 193.87 880.36 L 192.99 879.48 L 192.11 878.60 L 192.11 876.83 L 191.23 875.95 L 190.35 875.07 L 189.47 874.19 L 188.59 873.31 L 188.59 871.55 L 187.70 870.66 L 186.82 869.78 L 186.82 868.02 L 185.94 867.14 L 185.06 866.26 L 184.18 865.38 L 183.30 864.50 L 183.30 862.73 L 182.42 861.85 L 181.54 860.97 L 181.54 859.21 L 180.65 858.33 L 179.77 857.45 L 178.89 856.56 L 178.01 855.68 L 178.01 853.92 L 177.13 853.04 L 176.25 852.16 L 176.25 850.40 L 175.37 849.51 L 174.49 848.63 L 174.49 846.87 L 173.60 845.99 L 172.72 845.11 L 172.72 843.35 L 171.84 842.46 L 170.96 841.58 L 170.96 839.82 L 170.08 838.94 L 169.20 838.06 L 169.20 836.30 L 168.32 835.41 L 167.44 834.53 L 166.55 833.65 L 165.67 832.77 L 165.67 831.01 L 164.79 830.13 L 163.91 829.25 L 163.91 827.48 L 163.03 826.60 L 162.15 825.72 L 162.15 823.96 L 162.15 822.20 L 161.27 821.31 L 160.39 820.43 L 160.39 818.67 L 159.50 817.79 L 158.62 816.91 L 158.62 815.15 L 157.74 814.27 L 156.86 813.38 L 156.86 811.62 L 155.98 810.74 L 155.10 809.86 L 155.10 808.10 L 155.10 806.33 L 154.22 805.45 L 153.34 804.57 L 153.34 802.81 L 152.45 801.93 L 151.57 801.05 L 151.57 799.28 L 150.69 798.40 L 149.81 797.52 L 149.81 795.76 L 149.81 794.00 L 148.93 793.12 L 148.05 792.23 L 148.05 790.47 L 147.17 789.59 L 146.29 788.71 L 146.29 786.95 L 146.29 785.18 L 145.40 784.30 L 144.52 783.42 L 144.52 781.66 L 144.52 779.90 L 143.64 779.02 L 142.76 778.13 L 142.76 776.37 L 141.88 775.49 L 141.00 774.61 L 141.00 772.85 L 141.00 771.08 L 140.12 770.20 L 139.24 769.32 L 139.24 767.56 L 139.24 765.80 L 138.35 764.92 L 137.47 764.03 L 137.47 762.27 L 137.47 760.51 L 136.59 759.63 L 135.71 758.75 L 135.71 756.98 L 135.71 755.22 L 134.83 754.34 L 133.95 753.46 L 133.95 751.70 L 133.95 749.93 L 133.07 749.05 L 132.19 748.17 L 132.19 746.41 L 132.19 744.65 L 132.19 742.88 L 131.30 742.00 L 130.42 741.12 L 130.42 739.36 L 130.42 737.60 L 129.54 736.72 L 128.66 735.83 L 128.66 734.07 L 128.66 732.31 L 128.66 730.55 L 127.78 729.67 L 126.90 728.78 L 126.90 727.02 L 126.90 725.26 L 126.02 724.38 L 125.14 723.50 L 125.14 721.73 L 125.14 719.97 L 125.14 718.21 L 124.25 717.33 L 123.37 716.45 L 123.37 714.69 L 123.37 712.92 L 122.49 712.04 L 121.61 711.16 L 121.61 709.40 L 121.61 707.64 L 121.61 705.87 L 121.61 704.11 L 120.73 703.23 L 119.85 702.35 L 119.85 700.59 L 119.85 698.82 L 118.97 697.94 L 118.09 697.06 L 118.09 695.30 L 118.09 693.54 L 118.09 691.77 L 118.09 690.01 L 117.20 689.13 L 116.32 688.25 L 116.32 686.49 L 116.32 684.72 L 116.32 682.96 L 116.32 681.20 L 116.32 679.44 L 115.44 678.55 L 114.56 677.67 L 114.56 675.91 L 114.56 674.15 L 114.56 672.39 L 114.56 670.62 L 113.68 669.74 L 112.80 668.86 L 112.80 667.10 L 112.80 665.34 L 112.80 663.57 L 112.80 661.81 L 112.80 660.05 L 111.92 659.17 L 111.04 658.29 L 111.04 656.52 L 111.04 654.76 L 111.04 653.00 L 111.04 651.24 L 111.04 649.47 L 111.04 647.71 L 111.04 645.95 L 110.15 645.07 L 109.27 644.19 L 109.27 642.42 L 109.27 640.66 L 109.27 638.90 L 109.27 637.14 L 109.27 635.37 L 109.27 633.61 L 109.27 631.85 L 109.27 630.09 L 109.27 628.32 L 108.39 627.44 L 107.51 626.56 L 107.51 624.80 L 107.51 623.04 L 107.51 621.27 L 107.51 619.51 L 107.51 617.75 L 107.51 615.99 L 107.51 614.22 L 107.51 612.46 L 107.51 610.70 L 107.51 608.94 L 107.51 607.17 L 106.63 606.29 L 105.75 605.41 L 105.75 603.65 L 105.75 601.89 L 105.75 600.12 L 105.75 598.36 L 105.75 596.60 L 105.75 594.84 L 105.75 593.07 L 105.75 591.31 L 105.75 589.55 L 105.75 587.79 L 105.75 586.02 L 105.75 584.26 L 105.75 582.50 L 105.75 580.74 L 105.75 578.97 L 105.75 577.21 L 105.75 575.45 L 105.75 573.69 L 105.75 571.92 L 104.87 571.04 L 103.99 570.16 L 103.99 568.40 L 103.99 566.64 L 103.99 564.87 L 103.99 563.11 L 103.99 561.35 L 103.99 559.59 L 103.99 557.82 L 103.99 556.06 L 103.99 554.30 L 103.99 552.54 L 103.99 550.77 L 103.99 549.01 L 103.99 547.25 L 103.99 545.49 L 103.99 543.72 L 103.99 541.96 L 103.99 540.20 L 103.99 538.44 L 103.99 536.67 L 103.99 534.91 L 103.99 533.15 L 103.99 531.39 L 103.99 529.62 L 103.99 527.86 L 103.99 526.10 L 103.99 524.34 L 103.99 522.57 L 103.99 520.81 L 104.87 519.93 L 105.75 519.05 L 105.75 517.29 L 105.75 515.52 L 105.75 513.76 L 105.75 512.00 L 105.75 510.24 L 105.75 508.48 L 105.75 506.71 L 105.75 504.95 L 105.75 503.19 L 105.75 501.43 L 106.63 500.54 L 107.51 499.66 L 107.51 497.90 L 107.51 496.14 L 107.51 494.38 L 107.51 492.61 L 107.51 490.85 L 108.39 489.97 L 109.27 489.09 L 109.27 487.33 L 109.27 485.56 L 109.27 483.80 L 109.27 482.04 L 109.27 480.28 L 110.15 479.39 L 111.04 478.51 L 111.04 476.75 L 111.04 474.99 L 111.04 473.23 L 111.04 471.46 L 111.92 470.58 L 112.80 469.70 L 112.80 467.94 L 112.80 466.18 L 112.80 464.41 L 113.68 463.53 L 114.56 462.65 L 114.56 460.89 L 114.56 459.13 L 114.56 457.36 L 115.44 456.48 L 116.32 455.60 L 116.32 453.84 L 116.32 452.08 L 116.32 450.31 L 117.20 449.43 L 118.09 448.55 L 118.09 446.79 L 118.09 445.03 L 118.97 444.14 L 119.85 443.26 L 119.85 441.50 L 119.85 439.74 L 120.73 438.86 L 121.61 437.98 L 121.61 436.21 L 121.61 434.45 L 122.49 433.57 L 123.37 432.69 L 123.37 430.93 L 123.37 429.16 L 124.25 428.28 L 125.14 427.40 L 125.14 425.64 L 126.02 424.76 L 126.90 423.88 L 126.90 422.11 L 127.78 421.23 L 128.66 420.35 L 128.66 418.59 L 128.66 416.83 L 129.54 415.94 L 130.42 415.06 L 130.42 413.30 L 131.30 412.42 L 132.19 411.54 L 132.19 409.78 L 133.07 408.90 L 133.95 408.01 L 133.95 406.25 L 134.83 405.37 L 135.71 404.49 L 135.71 402.73 L 135.71 400.96 L 136.59 400.08 L 137.47 399.20 L 138.35 398.32 L 139.24 397.44 L 139.24 395.68 L 140.12 394.80 L 141.00 393.91 L 141.00 392.15 L 141.88 391.27 L 142.76 390.39 L 142.76 388.63 L 143.64 387.75 L 144.52 386.86 L 145.40 385.98 L 146.29 385.10 L 146.29 383.34 L 147.17 382.46 L 148.05 381.58 L 148.05 379.81 L 148.93 378.93 L 149.81 378.05 L 150.69 377.17 L 151.57 376.29 L 151.57 374.53 L 152.45 373.65 L 153.34 372.76 L 154.22 371.88 L 155.10 371.00 L 155.10 369.24 L 155.98 368.36 L 156.86 367.48 L 156.86 365.71 L 157.74 364.83 L 158.62 363.95 L 159.50 363.07 L 160.39 362.19 L 161.27 361.31 L 162.15 360.43 L 162.15 358.66 L 163.03 357.78 L 163.91 356.90 L 164.79 356.02 L 165.67 355.14 L 166.55 354.26 L 167.44 353.38 L 167.44 351.61 L 168.32 350.73 L 169.20 349.85 L 170.08 348.97 L 170.96 348.09 L 171.84 347.21 L 172.72 346.33 L 173.60 345.45 L 174.49 344.56 L 175.37 343.68 L 176.25 342.80 L 176.25 341.04 L 177.13 340.16 L 178.01 339.28 L 178.89 338.40 L 179.77 337.51 L 180.65 336.63 L 181.54 335.75 L 182.42 334.87 L 183.30 333.99 L 184.18 333.11 L 185.06 332.23 L 185.94 331.35 L 186.82 330.46 L 187.70 329.58 L 188.59 328.70 L 189.47 327.82 L 190.35 326.94 L 191.23 326.06 L 192.11 325.18 L 192.99 324.30 L 193.87 323.41 L 194.75 322.53 L 195.64 321.65 L 196.52 320.77 L 197.40 319.89 L 198.28 319.01 L 199.16 318.13 L 200.04 317.25 L 200.92 316.36 L 201.80 315.48 L 202.69 314.60 L 203.57 313.72 L 204.45 312.84 L 205.33 311.96 L 206.21 311.08 L 207.09 310.20 L 208.85 310.20 L 209.73 309.31 L 210.62 308.43 L 211.50 307.55 L 212.38 306.67 L 213.26 305.79 L 214.14 304.91 L 215.02 304.03 L 215.90 303.15 L 217.67 303.15 L 218.55 302.27 L 219.43 301.38 L 220.31 300.50 L 221.19 299.62 L 222.07 298.74 L 222.95 297.86 L 224.72 297.86 L 225.60 296.98 L 226.48 296.10 L 227.36 295.22 L 228.24 294.33 L 229.12 293.45 L 230.00 292.57 L 231.77 292.57 L 232.65 291.69 L 233.53 290.81 L 235.29 290.81 L 236.17 289.93 L 237.05 289.05 L 237.93 288.17 L 238.82 287.28 L 240.58 287.28 L 241.46 286.40 L 242.34 285.52 L 243.22 284.64 L 244.10 283.76 L 245.87 283.76 L 246.75 282.88 L 247.63 282.00 L 249.39 282.00 L 250.27 281.12 L 251.15 280.23 L 252.92 280.23 L 253.80 279.35 L 254.68 278.47 L 256.44 278.47 L 257.32 277.59 L 258.20 276.71 L 259.97 276.71 L 260.85 275.83 L 261.73 274.95 L 263.49 274.95 L 264.37 274.07 L 265.25 273.18 L 267.02 273.18 L 267.90 272.30 L 268.78 271.42 L 270.54 271.42 L 271.42 270.54 L 272.30 269.66 L 274.07 269.66 L 275.83 269.66 L 276.71 268.78 L 277.59 267.90 L 279.35 267.90 L 280.23 267.02 L 281.12 266.13 L 282.88 266.13 L 284.64 266.13 L 285.52 265.25 L 286.40 264.37 L 288.17 264.37 L 289.05 263.49 L 289.93 262.61 L 291.69 262.61 L 293.45 262.61 L 294.33 261.73 L 295.22 260.85 L 296.98 260.85 L 297.86 259.97 L 298.74 259.08 L 300.50 259.08 L 302.27 259.08 L 303.15 258.20 L 304.03 257.32 L 305.79 257.32 L 307.55 257.32 L 309.31 257.32 L 310.20 256.44 L 311.08 255.56 L 312.84 255.56 L 314.60 255.56 L 316.36 255.56 L 318.13 255.56 L 319.01 254.68 L 319.89 253.80 L 321.65 253.80 L 323.41 253.80 L 325.18 253.80 L 326.94 253.80 L 328.70 253.80 L 330.46 253.80 L 332.23 253.80 L 333.11 252.92 L 333.99 252.03 L 335.75 252.03 L 337.51 252.03 L 339.28 252.03 L 341.04 252.03 L 342.80 252.03 L 344.56 252.03 L 346.33 252.03 L 348.09 252.03 L 349.85 252.03 L 351.61 252.03 L 353.38 252.03 L 355.14 252.03 L 356.90 252.03 L 358.66 252.03 L 360.43 252.03 L 362.19 252.03 L 363.95 252.03 L 365.71 252.03 L 367.48 252.03 L 368.36 252.92 L 369.24 253.80 L 371.00 253.80 L 372.76 253.80 L 374.53 253.80 L 376.29 253.80 L 378.05 253.80 L 379.81 253.80 L 381.58 253.80 L 382.46 254.68 L 383.34 255.56 L 385.10 255.56 L 386.86 255.56 L 388.63 255.56 L 390.39 255.56 L 392.15 255.56 L 393.03 256.44 L 393.91 257.32 L 395.68 257.32 L 397.44 257.32 L 399.20 257.32 L 400.96 257.32 L 401.85 258.20 L 402.73 259.08 L 404.49 259.08 L 406.25 259.08 L 408.01 259.08 L 408.90 259.97 L 409.78 260.85 L 411.54 260.85 L 413.30 260.85 L 415.06 260.85 L 415.94 261.73 L 416.83 262.61 L 418.59 262.61 L 420.35 262.61 L 422.11 262.61 L 422.99 263.49 L 423.88 264.37 L 425.64 264.37 L 427.40 264.37 L 429.16 264.37 L 430.04 265.25 L 430.93 266.13 L 432.69 266.13 L 434.45 266.13 L 435.33 267.02 L 436.21 267.90 L 437.98 267.90 L 439.74 267.90 L 440.62 268.78 L 441.50 269.66 L 443.26 269.66 L 445.03 269.66 L 445.91 270.54 L 446.79 271.42 L 448.55 271.42 L 450.31 271.42 L 452.08 271.42 L 452.96 272.30 L 453.84 273.18 L 455.60 273.18 L 457.36 273.18 L 458.24 274.07 L 459.13 274.95 L 460.89 274.95 L 462.65 274.95 L 463.53 275.83 L 464.41 276.71 L 466.18 276.71 L 467.94 276.71 L 469.70 276.71 L 470.58 277.59 L 471.46 278.47 L 473.23 278.47 L 474.99 278.47 L 476.75 278.47 L 477.63 279.35 L 478.51 280.23 L 480.28 280.23 L 482.04 280.23 L 483.80 280.23 L 485.56 280.23 L 487.33 280.23 L 488.21 281.12 L 489.09 282.00 L 490.85 282.00 L 492.61 282.00 L 494.38 282.00 L 496.14 282.00 L 497.90 282.00 L 499.66 282.00 L 501.43 282.00 L 503.19 282.00 L 504.95 282.00 L 506.71 282.00 L 508.48 282.00 L 510.24 282.00 L 512.00 282.00 L 513.76 282.00 L 515.52 282.00 L 517.29 282.00 L 519.05 282.00 L 519.93 281.12 L 520.81 280.23 L 522.57 280.23 L 524.34 280.23 L 526.10 280.23 L 527.86 280.23 L 528.74 279.35 L 529.62 278.47 L 531.39 278.47 L 533.15 278.47 L 534.03 277.59 L 534.91 276.71 L 536.67 276.71 L 538.44 276.71 L 539.32 275.83 L 540.20 274.95 L 541.96 274.95 L 543.72 274.95 L 544.61 274.07 L 545.49 273.18 L 547.25 273.18 L 549.01 273.18 L 549.89 272.30 L 550.77 271.42 L 552.54 271.42 L 553.42 270.54 L 554.30 269.66 L 556.06 269.66 L 557.82 269.66 L 558.71 268.78 L 559.59 267.90 L 561.35 267.90 L 562.23 267.02 L 563.11 266.13 L 564.87 266.13 L 566.64 266.13 L 567.52 265.25 L 568.40 264.37 L 570.16 264.37 L 571.04 263.49 L 571.92 262.61 L 573.69 262.61 L 575.45 262.61 L 576.33 261.73 L 577.21 260.85 L 578.97 260.85 L 579.86 259.97 L 580.74 259.08 L 582.50 259.08 L 584.26 259.08 L 585.14 258.20 L 586.02 257.32 L 587.79 257.32 L 588.67 256.44 L 589.55 255.56 L 591.31 255.56 L 593.07 255.56 L 593.96 254.68 L 594.84 253.80 L 596.60 253.80 L 597.48 252.92 L 598.36 252.03 L 600.12 252.03 L 601.89 252.03 L 602.77 251.15 L 603.65 250.27 L 605.41 250.27 L 606.29 249.39 L 607.17 248.51 L 608.94 248.51 L 610.70 248.51 L 611.58 247.63 L 612.46 246.75 L 614.22 246.75 L 615.99 246.75 L 616.87 245.87 L 617.75 244.98 L 619.51 244.98 L 621.27 244.98 L 623.04 244.98 L 623.92 244.10 L 624.80 243.22 L 626.56 243.22 L 628.32 243.22 L 629.20 242.34 L 630.09 241.46 L 631.85 241.46 L 633.61 241.46 L 634.49 240.58 L 635.37 239.70 L 637.14 239.70 L 638.90 239.70 L 640.66 239.70 L 641.54 238.82 L 642.42 237.93 L 644.19 237.93 L 645.95 237.93 L 647.71 237.93 L 648.59 237.05 L 649.47 236.17 L 651.24 236.17 L 653.00 236.17 L 653.88 235.29 L 654.76 234.41 L 656.52 234.41 L 658.29 234.41 L 660.05 234.41 L 661.81 234.41 L 663.57 234.41 L 664.45 233.53 L 665.34 232.65 L 667.10 232.65 L 668.86 232.65 L 670.62 232.65 L 672.39 232.65 L 674.15 232.65 Z" fill="#000" stroke="none"/>
  <path d="M 690.89 0.88 L 691.77 0.00 L 692.65 0.88 L 692.65 2.64 L 692.65 4.41 L 692.65 6.17 L 692.65 7.93 L 692.65 9.69 L 692.65 11.46 L 692.65 13.22 L 692.65 14.98 L 692.65 16.74 L 692.65 18.51 L 692.65 20.27 L 692.65 22.03 L 692.65 23.79 L 692.65 25.56 L 692.65 27.32 L 691.77 28.20 L 690.89 29.08 L 690.89 30.84 L 690.89 32.61 L 690.89 34.37 L 690.89 36.13 L 690.89 37.89 L 690.89 39.66 L 690.89 41.42 L 690.89 43.18 L 690.89 44.94 L 690.01 45.82 L 689.13 46.71 L 689.13 48.47 L 689.13 50.23 L 689.13 51.99 L 689.13 53.76 L 689.13 55.52 L 689.13 57.28 L 688.25 58.16 L 687.37 59.04 L 687.37 60.81 L 687.37 62.57 L 687.37 64.33 L 687.37 66.09 L 686.49 66.97 L 685.60 67.86 L 685.60 69.62 L 685.60 71.38 L 685.60 73.14 L 684.72 74.02 L 683.84 74.91 L 683.84 76.67 L 683.84 78.43 L 683.84 80.19 L 682.96 81.07 L 682.08 81.96 L 682.08 83.72 L 682.08 85.48 L 681.20 86.36 L 680.32 87.24 L 680.32 89.01 L 680.32 90.77 L 679.44 91.65 L 678.55 92.53 L 678.55 94.29 L 678.55 96.06 L 677.67 96.94 L 676.79 97.82 L 676.79 99.58 L 676.79 101.34 L 675.91 102.22 L 675.03 103.10 L 675.03 104.87 L 675.03 106.63 L 674.15 107.51 L 673.27 108.39 L 673.27 110.15 L 672.39 111.04 L 671.50 111.92 L 671.50 113.68 L 670.62 114.56 L 669.74 115.44 L 669.74 117.20 L 669.74 118.97 L 668.86 119.85 L 667.98 120.73 L 667.98 122.49 L 667.10 123.37 L 666.22 124.25 L 666.22 126.02 L 665.34 126.90 L 664.45 127.78 L 663.57 128.66 L 662.69 129.54 L 662.69 131.30 L 662.69 133.07 L 661.81 133.95 L 660.93 134.83 L 660.05 135.71 L 659.17 136.59 L 659.17 138.35 L 658.29 139.24 L 657.40 140.12 L 656.52 141.00 L 655.64 141.88 L 655.64 143.64 L 654.76 144.52 L 653.88 145.40 L 653.88 147.17 L 653.00 148.05 L 652.12 148.93 L 651.24 149.81 L 650.35 150.69 L 649.47 151.57 L 648.59 152.45 L 648.59 154.22 L 647.71 155.10 L 646.83 155.98 L 645.95 156.86 L 645.07 157.74 L 644.19 158.62 L 643.30 159.50 L 643.30 161.27 L 642.42 162.15 L 641.54 163.03 L 640.66 163.91 L 639.78 164.79 L 638.90 165.67 L 638.02 166.55 L 637.14 167.44 L 636.25 168.32 L 635.37 169.20 L 634.49 170.08 L 634.49 171.84 L 633.61 172.72 L 631.85 172.72 L 630.97 173.60 L 630.97 175.37 L 630.09 176.25 L 628.32 176.25 L 627.44 177.13 L 627.44 178.89 L 626.56 179.77 L 625.68 180.65 L 624.80 181.54 L 623.92 182.42 L 623.04 183.30 L 622.15 184.18 L 621.27 185.06 L 620.39 185.94 L 619.51 186.82 L 618.63 187.70 L 617.75 188.59 L 616.87 189.47 L 615.99 190.35 L 614.22 190.35 L 613.34 191.23 L 612.46 192.11 L 611.58 192.99 L 610.70 193.87 L 609.82 194.75 L 608.94 195.64 L 607.17 195.64 L 606.29 196.52 L 605.41 197.40 L 604.53 198.28 L 603.65 199.16 L 602.77 200.04 L 601.89 200.92 L 600.12 200.92 L 599.24 201.80 L 598.36 202.69 L 597.48 203.57 L 596.60 204.45 L 594.84 204.45 L 593.96 205.33 L 593.07 206.21 L 592.19 207.09 L 591.31 207.97 L 589.55 207.97 L 588.67 208.85 L 587.79 209.73 L 586.02 209.73 L 585.14 210.62 L 584.26 211.50 L 582.50 211.50 L 581.62 212.38 L 580.74 213.26 L 578.97 213.26 L 578.09 214.14 L 577.21 215.02 L 575.45 215.02 L 574.57 215.90 L 573.69 216.78 L 571.92 216.78 L 571.04 217.67 L 570.16 218.55 L 568.40 218.55 L 567.52 219.43 L 566.64 220.31 L 564.87 220.31 L 563.11 220.31 L 562.23 221.19 L 561.35 222.07 L 559.59 222.07 L 558.71 222.95 L 557.82 223.83 L 556.06 223.83 L 555.18 224.72 L 554.30 225.60 L 552.54 225.60 L 550.77 225.60 L 549.89 226.48 L 549.01 227.36 L 547.25 227.36 L 545.49 227.36 L 543.72 227.36 L 542.84 228.24 L 541.96 229.12 L 540.20 229.12 L 538.44 229.12 L 537.56 230.00 L 536.67 230.88 L 534.91 230.88 L 533.15 230.88 L 531.39 230.88 L 530.51 231.77 L 529.62 232.65 L 527.86 232.65 L 526.10 232.65 L 524.34 232.65 L 522.57 232.65 L 521.69 233.53 L 520.81 234.41 L 519.05 234.41 L 517.29 234.41 L 515.52 234.41 L 513.76 234.41 L 512.00 234.41 L 510.24 234.41 L 509.36 235.29 L 508.48 236.17 L 506.71 236.17 L 504.95 236.17 L 503.19 236.17 L 501.43 236.17 L 499.66 236.17 L 497.90 236.17 L 496.14 236.17 L 494.38 236.17 L 492.61 236.17 L 490.85 236.17 L 489.09 236.17 L 488.21 235.29 L 488.21 233.53 L 488.21 231.77 L 488.21 230.00 L 488.21 228.24 L 488.21 226.48 L 488.21 224.72 L 488.21 222.95 L 488.21 221.19 L 488.21 219.43 L 488.21 217.67 L 488.21 215.90 L 488.21 214.14 L 488.21 212.38 L 488.21 210.62 L 489.09 209.73 L 489.97 208.85 L 489.97 207.09 L 489.97 205.33 L 489.97 203.57 L 489.97 201.80 L 489.97 200.04 L 489.97 198.28 L 489.97 196.52 L 489.97 194.75 L 490.85 193.87 L 491.73 192.99 L 491.73 191.23 L 491.73 189.47 L 491.73 187.70 L 491.73 185.94 L 491.73 184.18 L 492.61 183.30 L 493.49 182.42 L 493.49 180.65 L 493.49 178.89 L 493.49 177.13 L 493.49 175.37 L 494.38 174.49 L 495.26 173.60 L 495.26 171.84 L 495.26 170.08 L 495.26 168.32 L 496.14 167.44 L 497.02 166.55 L 497.02 164.79 L 497.02 163.03 L 497.90 162.15 L 498.78 161.27 L 498.78 159.50 L 498.78 157.74 L 498.78 155.98 L 499.66 155.10 L 500.54 154.22 L 500.54 152.45 L 500.54 150.69 L 501.43 149.81 L 502.31 148.93 L 502.31 147.17 L 502.31 145.40 L 503.19 144.52 L 504.07 143.64 L 504.07 141.88 L 504.07 140.12 L 504.95 139.24 L 505.83 138.35 L 505.83 136.59 L 505.83 134.83 L 506.71 133.95 L 507.59 133.07 L 507.59 131.30 L 508.48 130.42 L 509.36 129.54 L 509.36 127.78 L 510.24 126.90 L 511.12 126.02 L 511.12 124.25 L 512.00 123.37 L 512.88 122.49 L 512.88 120.73 L 512.88 118.97 L 513.76 118.09 L 514.64 117.20 L 515.52 116.32 L 516.41 115.44 L 516.41 113.68 L 517.29 112.80 L 518.17 111.92 L 518.17 110.15 L 519.05 109.27 L 519.93 108.39 L 519.93 106.63 L 520.81 105.75 L 521.69 104.87 L 522.57 103.99 L 523.46 103.10 L 523.46 101.34 L 524.34 100.46 L 525.22 99.58 L 525.22 97.82 L 526.10 96.94 L 526.98 96.06 L 527.86 95.17 L 528.74 94.29 L 529.62 93.41 L 530.51 92.53 L 530.51 90.77 L 531.39 89.89 L 532.27 89.01 L 533.15 88.12 L 534.03 87.24 L 534.91 86.36 L 535.79 85.48 L 536.67 84.60 L 537.56 83.72 L 538.44 82.84 L 539.32 81.96 L 539.32 80.19 L 540.20 79.31 L 541.08 78.43 L 541.96 77.55 L 542.84 76.67 L 543.72 75.79 L 544.61 74.91 L 545.49 74.02 L 546.37 73.14 L 547.25 72.26 L 548.13 71.38 L 549.01 70.50 L 549.89 69.62 L 550.77 68.74 L 551.66 67.86 L 552.54 66.97 L 553.42 66.09 L 554.30 65.21 L 555.18 64.33 L 556.06 63.45 L 556.94 62.57 L 557.82 61.69 L 558.71 60.81 L 559.59 59.92 L 560.47 59.04 L 561.35 58.16 L 562.23 57.28 L 563.11 56.40 L 563.99 55.52 L 564.87 54.64 L 565.76 53.76 L 566.64 52.87 L 567.52 51.99 L 568.40 51.11 L 570.16 51.11 L 571.04 50.23 L 571.92 49.35 L 572.81 48.47 L 573.69 47.59 L 574.57 46.71 L 575.45 45.82 L 577.21 45.82 L 578.09 44.94 L 578.97 44.06 L 579.86 43.18 L 580.74 42.30 L 581.62 41.42 L 582.50 40.54 L 584.26 40.54 L 585.14 39.66 L 586.02 38.77 L 587.79 38.77 L 588.67 37.89 L 589.55 37.01 L 591.31 37.01 L 592.19 36.13 L 593.07 35.25 L 593.96 34.37 L 594.84 33.49 L 596.60 33.49 L 597.48 32.61 L 598.36 31.72 L 599.24 30.84 L 600.12 29.96 L 601.89 29.96 L 602.77 29.08 L 603.65 28.20 L 605.41 28.20 L 606.29 27.32 L 607.17 26.44 L 608.94 26.44 L 609.82 25.56 L 610.70 24.67 L 612.46 24.67 L 613.34 23.79 L 614.22 22.91 L 615.99 22.91 L 617.75 22.91 L 618.63 22.03 L 619.51 21.15 L 621.27 21.15 L 622.15 20.27 L 623.04 19.39 L 624.80 19.39 L 625.68 18.51 L 626.56 17.62 L 628.32 17.62 L 629.20 16.74 L 630.09 15.86 L 631.85 15.86 L 633.61 15.86 L 634.49 14.98 L 635.37 14.10 L 637.14 14.10 L 638.90 14.10 L 639.78 13.22 L 640.66 12.34 L 642.42 12.34 L 644.19 12.34 L 645.07 11.46 L 645.95 10.57 L 647.71 10.57 L 649.47 10.57 L 650.35 9.69 L 651.24 8.81 L 653.00 8.81 L 654.76 8.81 L 656.52 8.81 L 657.40 7.93 L 658.29 7.05 L 660.05 7.05 L 661.81 7.05 L 663.57 7.05 L 664.45 6.17 L 665.34 5.29 L 667.10 5.29 L 668.86 5.29 L 670.62 5.29 L 672.39 5.29 L 673.27 4.41 L 674.15 3.52 L 675.91 3.52 L 677.67 3.52 L 679.44 3.52 L 680.32 2.64 L 681.20 1.76 L 682.96 1.76 L 684.72 1.76 L 686.49 1.76 L 688.25 1.76 L 690.01 1.76 Z" fill="#000" stroke="none"/>
</svg>
